<svg width="722" height="458" viewBox="0 0 722 458" fill="none" xmlns="http://www.w3.org/2000/svg">
<g clip-path="url(#clip0_3_73)">
<g clip-path="url(#clip1_3_73)">
<g filter="url(#filter0_i_3_73)">
<rect width="722" height="458" rx="25" fill="url(#paint0_linear_3_73)"/>
</g>
<path d="M228.2 363.456C226.936 363.456 225.824 363.208 224.864 362.712C223.904 362.216 223.16 361.488 222.632 360.528C222.104 359.568 221.84 358.392 221.84 357V356.232H225.224V357.288C225.224 358.216 225.496 358.952 226.04 359.496C226.584 360.024 227.296 360.288 228.176 360.288C229.072 360.288 229.784 360.024 230.312 359.496C230.856 358.952 231.128 358.216 231.128 357.288V348H234.536V357C234.536 358.392 234.272 359.568 233.744 360.528C233.216 361.488 232.48 362.216 231.536 362.712C230.592 363.208 229.48 363.456 228.2 363.456ZM223.976 348.48V345.48H234.536V348.48H223.976ZM249.19 363.456C247.606 363.456 246.23 363.176 245.062 362.616C243.91 362.056 242.95 361.328 242.182 360.432C241.43 359.52 240.862 358.544 240.478 357.504C240.11 356.448 239.926 355.432 239.926 354.456V353.928C239.926 352.856 240.118 351.792 240.502 350.736C240.886 349.664 241.462 348.696 242.23 347.832C243.014 346.968 243.982 346.28 245.134 345.768C246.286 345.24 247.638 344.976 249.19 344.976C250.726 344.976 252.07 345.24 253.222 345.768C254.374 346.28 255.334 346.968 256.102 347.832C256.886 348.696 257.47 349.664 257.854 350.736C258.238 351.792 258.43 352.856 258.43 353.928V354.456C258.43 355.432 258.238 356.448 257.854 357.504C257.486 358.544 256.918 359.52 256.15 360.432C255.398 361.328 254.438 362.056 253.27 362.616C252.118 363.176 250.758 363.456 249.19 363.456ZM249.19 360.288C250.086 360.288 250.886 360.128 251.59 359.808C252.31 359.488 252.918 359.048 253.414 358.488C253.926 357.912 254.31 357.264 254.566 356.544C254.838 355.808 254.974 355.032 254.974 354.216C254.974 353.336 254.838 352.528 254.566 351.792C254.31 351.056 253.926 350.416 253.414 349.872C252.918 349.328 252.31 348.904 251.59 348.6C250.87 348.296 250.07 348.144 249.19 348.144C248.294 348.144 247.486 348.296 246.766 348.6C246.046 348.904 245.43 349.328 244.918 349.872C244.422 350.416 244.038 351.056 243.766 351.792C243.51 352.528 243.382 353.336 243.382 354.216C243.382 355.032 243.51 355.808 243.766 356.544C244.038 357.264 244.422 357.912 244.918 358.488C245.43 359.048 246.046 359.488 246.766 359.808C247.486 360.128 248.294 360.288 249.19 360.288ZM261.716 363L267.692 345.48H273.26L279.404 363H275.9L270.692 347.808L271.916 348.336H268.916L270.164 347.808L265.124 363H261.716ZM265.892 358.344L266.972 355.464H274.076L275.132 358.344H265.892ZM291.959 363.456C290.375 363.456 288.999 363.176 287.831 362.616C286.679 362.056 285.719 361.328 284.951 360.432C284.199 359.52 283.631 358.544 283.247 357.504C282.879 356.448 282.695 355.432 282.695 354.456V353.928C282.695 352.856 282.887 351.792 283.271 350.736C283.655 349.664 284.231 348.696 284.999 347.832C285.783 346.968 286.751 346.28 287.903 345.768C289.055 345.24 290.407 344.976 291.959 344.976C293.495 344.976 294.839 345.24 295.991 345.768C297.143 346.28 298.103 346.968 298.871 347.832C299.655 348.696 300.239 349.664 300.623 350.736C301.007 351.792 301.199 352.856 301.199 353.928V354.456C301.199 355.432 301.007 356.448 300.623 357.504C300.255 358.544 299.687 359.52 298.919 360.432C298.167 361.328 297.207 362.056 296.039 362.616C294.887 363.176 293.527 363.456 291.959 363.456ZM291.959 360.288C292.855 360.288 293.655 360.128 294.359 359.808C295.079 359.488 295.687 359.048 296.183 358.488C296.695 357.912 297.079 357.264 297.335 356.544C297.607 355.808 297.743 355.032 297.743 354.216C297.743 353.336 297.607 352.528 297.335 351.792C297.079 351.056 296.695 350.416 296.183 349.872C295.687 349.328 295.079 348.904 294.359 348.6C293.639 348.296 292.839 348.144 291.959 348.144C291.063 348.144 290.255 348.296 289.535 348.6C288.815 348.904 288.199 349.328 287.687 349.872C287.191 350.416 286.807 351.056 286.535 351.792C286.279 352.528 286.151 353.336 286.151 354.216C286.151 355.032 286.279 355.808 286.535 356.544C286.807 357.264 287.191 357.912 287.687 358.488C288.199 359.048 288.815 359.488 289.535 359.808C290.255 360.128 291.063 360.288 291.959 360.288ZM322.369 363.456C320.785 363.456 319.425 363.176 318.289 362.616C317.153 362.056 316.225 361.328 315.505 360.432C314.801 359.536 314.281 358.56 313.945 357.504C313.609 356.448 313.441 355.432 313.441 354.456V353.928C313.441 352.84 313.609 351.768 313.945 350.712C314.297 349.656 314.833 348.696 315.553 347.832C316.273 346.968 317.185 346.28 318.289 345.768C319.409 345.24 320.729 344.976 322.249 344.976C323.833 344.976 325.209 345.264 326.377 345.84C327.561 346.4 328.505 347.2 329.209 348.24C329.913 349.264 330.337 350.464 330.481 351.84H327.049C326.921 351.04 326.633 350.368 326.185 349.824C325.753 349.264 325.201 348.848 324.529 348.576C323.857 348.288 323.097 348.144 322.249 348.144C321.385 348.144 320.617 348.296 319.945 348.6C319.273 348.888 318.713 349.304 318.265 349.848C317.817 350.392 317.473 351.032 317.233 351.768C317.009 352.504 316.897 353.32 316.897 354.216C316.897 355.08 317.009 355.88 317.233 356.616C317.473 357.352 317.825 358 318.289 358.56C318.753 359.104 319.321 359.528 319.993 359.832C320.681 360.136 321.473 360.288 322.369 360.288C323.681 360.288 324.785 359.968 325.681 359.328C326.593 358.672 327.145 357.76 327.337 356.592H330.769C330.609 357.84 330.185 358.984 329.497 360.024C328.809 361.064 327.865 361.896 326.665 362.52C325.465 363.144 324.033 363.456 322.369 363.456ZM334.152 363L340.128 345.48H345.696L351.84 363H348.336L343.128 347.808L344.352 348.336H341.352L342.6 347.808L337.56 363H334.152ZM338.328 358.344L339.408 355.464H346.512L347.568 358.344H338.328ZM356.843 363V345.48H361.499L365.891 355.944H366.323L370.691 345.48H375.419V363H372.035V348.048L372.467 348.096L367.739 359.424H364.259L359.507 348.096L359.963 348.048V363H356.843ZM385.069 357.624V354.672H388.477C389.165 354.672 389.741 354.536 390.205 354.264C390.685 353.992 391.045 353.616 391.285 353.136C391.541 352.656 391.669 352.104 391.669 351.48C391.669 350.856 391.541 350.304 391.285 349.824C391.045 349.344 390.685 348.976 390.205 348.72C389.741 348.448 389.165 348.312 388.477 348.312H385.069V345.36H388.189C389.661 345.36 390.909 345.6 391.933 346.08C392.973 346.56 393.765 347.248 394.309 348.144C394.853 349.024 395.125 350.072 395.125 351.288V351.672C395.125 352.888 394.853 353.944 394.309 354.84C393.765 355.72 392.973 356.408 391.933 356.904C390.909 357.384 389.661 357.624 388.189 357.624H385.069ZM382.141 363V345.36H385.549V363H382.141ZM408.57 363.456C406.986 363.456 405.61 363.176 404.442 362.616C403.29 362.056 402.33 361.328 401.562 360.432C400.81 359.52 400.242 358.544 399.858 357.504C399.49 356.448 399.306 355.432 399.306 354.456V353.928C399.306 352.856 399.498 351.792 399.882 350.736C400.266 349.664 400.842 348.696 401.61 347.832C402.394 346.968 403.362 346.28 404.514 345.768C405.666 345.24 407.018 344.976 408.57 344.976C410.106 344.976 411.45 345.24 412.602 345.768C413.754 346.28 414.714 346.968 415.482 347.832C416.266 348.696 416.85 349.664 417.234 350.736C417.618 351.792 417.81 352.856 417.81 353.928V354.456C417.81 355.432 417.618 356.448 417.234 357.504C416.866 358.544 416.298 359.52 415.53 360.432C414.778 361.328 413.818 362.056 412.65 362.616C411.498 363.176 410.138 363.456 408.57 363.456ZM408.57 360.288C409.466 360.288 410.266 360.128 410.97 359.808C411.69 359.488 412.298 359.048 412.794 358.488C413.306 357.912 413.69 357.264 413.946 356.544C414.218 355.808 414.354 355.032 414.354 354.216C414.354 353.336 414.218 352.528 413.946 351.792C413.69 351.056 413.306 350.416 412.794 349.872C412.298 349.328 411.69 348.904 410.97 348.6C410.25 348.296 409.45 348.144 408.57 348.144C407.674 348.144 406.866 348.296 406.146 348.6C405.426 348.904 404.81 349.328 404.298 349.872C403.802 350.416 403.418 351.056 403.146 351.792C402.89 352.528 402.762 353.336 402.762 354.216C402.762 355.032 402.89 355.808 403.146 356.544C403.418 357.264 403.802 357.912 404.298 358.488C404.81 359.048 405.426 359.488 406.146 359.808C406.866 360.128 407.674 360.288 408.57 360.288ZM429.386 363.456C427.834 363.456 426.522 363.208 425.45 362.712C424.394 362.216 423.586 361.536 423.026 360.672C422.466 359.792 422.186 358.8 422.186 357.696H425.522C425.522 358.16 425.65 358.616 425.906 359.064C426.162 359.496 426.57 359.848 427.13 360.12C427.706 360.392 428.458 360.528 429.386 360.528C430.218 360.528 430.914 360.408 431.474 360.168C432.034 359.928 432.45 359.616 432.722 359.232C432.994 358.832 433.13 358.384 433.13 357.888C433.13 357.264 432.866 356.768 432.338 356.4C431.81 356.016 430.994 355.776 429.89 355.68L428.354 355.56C426.674 355.416 425.33 354.896 424.322 354C423.33 353.088 422.834 351.888 422.834 350.4C422.834 349.28 423.098 348.32 423.626 347.52C424.154 346.704 424.89 346.08 425.834 345.648C426.794 345.2 427.914 344.976 429.194 344.976C430.522 344.976 431.666 345.208 432.626 345.672C433.586 346.136 434.33 346.792 434.858 347.64C435.386 348.472 435.65 349.456 435.65 350.592H432.314C432.314 350.112 432.194 349.672 431.954 349.272C431.73 348.856 431.386 348.528 430.922 348.288C430.474 348.032 429.898 347.904 429.194 347.904C428.522 347.904 427.962 348.016 427.514 348.24C427.066 348.464 426.73 348.768 426.506 349.152C426.282 349.536 426.17 349.952 426.17 350.4C426.17 350.944 426.37 351.424 426.77 351.84C427.17 352.24 427.802 352.472 428.666 352.536L430.202 352.68C431.45 352.776 432.546 353.04 433.49 353.472C434.434 353.904 435.162 354.488 435.674 355.224C436.202 355.96 436.466 356.848 436.466 357.888C436.466 358.992 436.178 359.968 435.602 360.816C435.026 361.648 434.202 362.296 433.13 362.76C432.074 363.224 430.826 363.456 429.386 363.456Z" fill="#FEFBFF"/>
<path fill-rule="evenodd" clip-rule="evenodd" d="M94.6653 319.851C94.6653 319.852 94.6657 319.826 94.6765 319.771C94.687 319.717 94.7053 319.646 94.7346 319.559C94.7934 319.385 94.89 319.165 95.0334 318.917C95.3199 318.421 95.7758 317.84 96.4341 317.301C97.733 316.235 99.8635 315.292 103.14 315.533C116.1 316.484 123.415 325.41 123.415 332.161V372.167C123.415 372.805 123.268 373.099 123.132 373.241C123.004 373.375 122.718 373.545 122.028 373.545H114.306C113.616 373.545 113.33 373.375 113.202 373.241C113.066 373.099 112.919 372.805 112.919 372.167V335.238C112.919 332.828 111.734 330.421 109.988 328.634C108.238 326.842 105.817 325.565 103.213 325.565H94.6653V319.851ZM103.213 327.565H94.6653V372.167C94.6653 373.162 94.4816 374.108 93.7928 374.763C93.1155 375.407 92.1812 375.545 91.2783 375.545H83.4153C82.6083 375.545 81.7232 375.389 81.0381 374.792C80.3256 374.171 80.0283 373.251 80.0283 372.167V334.819C80.0283 332.956 81.0921 330.668 82.6635 328.878C84.2481 327.074 86.5353 325.565 89.1713 325.565H92.6653V319.851C92.6653 319.284 92.917 318.582 93.3015 317.916C93.7055 317.217 94.3169 316.45 95.1658 315.754C96.8815 314.347 99.5249 313.262 103.286 313.538C117.005 314.545 125.415 324.098 125.415 332.161V372.167C125.415 373.069 125.211 373.963 124.575 374.626C123.931 375.297 123.024 375.545 122.028 375.545H114.306C113.31 375.545 112.403 375.297 111.759 374.626C111.123 373.963 110.919 373.069 110.919 372.167V335.238C110.919 333.463 110.026 331.534 108.558 330.031C107.093 328.532 105.161 327.565 103.213 327.565ZM89.1713 327.565H92.6653V372.167C92.6653 372.991 92.4979 373.234 92.4145 373.314C92.3195 373.404 92.0603 373.545 91.2783 373.545H83.4153C82.8182 373.545 82.5097 373.422 82.3524 373.285C82.2225 373.171 82.0283 372.902 82.0283 372.167V334.819C82.0283 333.604 82.7895 331.766 84.1663 330.198C85.5298 328.645 87.3141 327.565 89.1713 327.565ZM164.111 381.128C164.111 381.13 164.11 381.156 164.1 381.209C164.089 381.262 164.071 381.333 164.042 381.42C163.983 381.595 163.886 381.814 163.743 382.063C163.456 382.559 163.001 383.139 162.342 383.679C161.043 384.744 158.913 385.687 155.636 385.447C142.676 384.495 135.361 375.569 135.361 368.819V328.812C135.361 328.175 135.508 327.88 135.644 327.738C135.772 327.605 136.058 327.434 136.748 327.434H144.471C145.16 327.434 145.446 327.605 145.575 327.738C145.71 327.88 145.858 328.175 145.858 328.812V365.741C145.858 368.151 147.042 370.559 148.788 372.346C150.539 374.137 152.96 375.414 155.563 375.414H164.111V381.128V381.128ZM155.563 373.414H164.111V328.812C164.111 327.817 164.295 326.871 164.984 326.216C165.661 325.572 166.595 325.434 167.498 325.434H175.361C176.168 325.434 177.053 325.59 177.738 326.187C178.451 326.808 178.748 327.728 178.748 328.812V366.161C178.748 368.023 177.684 370.312 176.113 372.101C174.528 373.906 172.241 375.414 169.605 375.414H166.111V381.128C166.111 381.695 165.859 382.397 165.475 383.063C165.071 383.762 164.459 384.529 163.61 385.225C161.895 386.632 159.251 387.717 155.49 387.441C141.772 386.434 133.361 376.882 133.361 368.819V328.812C133.361 327.91 133.565 327.016 134.201 326.353C134.845 325.683 135.753 325.434 136.748 325.434H144.471C145.466 325.434 146.373 325.683 147.017 326.353C147.654 327.016 147.858 327.91 147.858 328.812V365.741C147.858 367.516 148.75 369.445 150.219 370.948C151.683 372.447 153.615 373.414 155.563 373.414ZM169.605 373.414H166.111V328.812C166.111 327.988 166.278 327.745 166.362 327.666C166.457 327.575 166.716 327.434 167.498 327.434H175.361C175.958 327.434 176.267 327.558 176.424 327.695C176.554 327.808 176.748 328.077 176.748 328.812V366.161C176.748 367.376 175.987 369.214 174.61 370.781C173.246 372.334 171.462 373.414 169.605 373.414Z" fill="#FEFBFF"/>
<circle cx="581.889" cy="86.4971" r="45.7505" fill="#E71924"/>
<circle cx="637.647" cy="86.4971" r="45.7505" fill="#F99F19"/>
<path fill-rule="evenodd" clip-rule="evenodd" d="M609.768 122.595C620.636 114.23 627.64 101.092 627.64 86.3172C627.64 71.5427 620.636 58.404 609.768 50.0396C598.9 58.404 591.897 71.5427 591.897 86.3172C591.897 101.092 598.9 114.23 609.768 122.595Z" fill="#F26520"/>
<rect x="80.4209" y="156.195" width="97.9347" height="69.3406" rx="6.07624" fill="url(#paint1_linear_3_73)" stroke="#211F21" stroke-width="2.14455"/>
<path d="M80.7783 178.713H110.087" stroke="#211F21" stroke-width="2" stroke-linecap="round"/>
<path d="M80.7783 200.873H109.445" stroke="#211F21" stroke-width="2" stroke-linecap="round"/>
<path d="M149.404 200.873H177.998" stroke="#211F21" stroke-width="2" stroke-linecap="round"/>
<path d="M148.975 179.428H177.998" stroke="#211F21" stroke-width="2" stroke-linecap="round"/>
<circle cx="129.388" cy="166.561" r="2.14455" fill="#211F21"/>
<path d="M231.053 205.824C236.325 192.59 236.926 185.119 231.053 171.645C230.43 170.215 231.053 169.024 231.768 168.786C232.483 168.547 233.589 168.786 234.27 170.215C241.188 184.73 240.767 192.87 234.627 207.387C233.912 208.817 232.575 208.998 231.768 208.46C230.824 207.831 230.608 206.941 231.053 205.824Z" fill="#FEFBFF"/>
<path d="M223.547 172.717C222.832 173.075 222.375 174.43 223.19 175.934C227.999 185.94 227.801 191.662 223.19 202.026C222.686 203.071 222.998 204.226 223.905 204.528C224.977 204.886 225.913 204.125 226.406 203.098C231.701 192.084 231.84 185.756 226.406 174.147C225.905 173.075 224.619 172.181 223.547 172.717Z" fill="#FEFBFF"/>
<path d="M216.399 177.364C215.326 177.721 215.136 178.908 215.684 180.223C218.53 187.063 218.979 190.898 215.684 197.737C215.041 198.929 214.83 200.193 216.041 200.596C217.252 201 218.126 200.363 218.543 199.524C222.766 191.149 221.82 186.454 218.543 178.079C218.263 177.364 217.471 177.006 216.399 177.364Z" fill="#FEFBFF"/>
<path d="M208.893 180.223C207.82 180.938 207.668 182.022 208.535 183.797C210.344 187.564 210.303 189.68 208.535 193.448C207.713 195.11 207.463 197.022 208.893 197.38C210.322 197.737 210.957 197.229 211.752 195.235C213.578 189.987 213.756 187.02 211.752 181.653C211.291 180.261 210.322 179.508 208.893 180.223Z" fill="#FEFBFF"/>
<path d="M145.115 170.849C142.372 161.508 137.251 156.91 129.03 156.91C119.023 156.91 116.194 164.53 110.087 178.355C113.998 187.507 114.039 192.437 110.087 200.873C116.494 219.254 121.24 224.915 129.388 224.821C140.111 224.821 143.163 215.733 149.046 200.873C145.952 192.497 145.622 187.875 148.5 179.5" stroke="#211F21" stroke-width="2" stroke-linecap="round"/>
</g>
</g>
<defs>
<filter id="filter0_i_3_73" x="0" y="0" width="725" height="461" filterUnits="userSpaceOnUse" color-interpolation-filters="sRGB">
<feFlood flood-opacity="0" result="BackgroundImageFix"/>
<feBlend mode="normal" in="SourceGraphic" in2="BackgroundImageFix" result="shape"/>
<feColorMatrix in="SourceAlpha" type="matrix" values="0 0 0 0 0 0 0 0 0 0 0 0 0 0 0 0 0 0 127 0" result="hardAlpha"/>
<feOffset dx="3" dy="3"/>
<feGaussianBlur stdDeviation="3"/>
<feComposite in2="hardAlpha" operator="arithmetic" k2="-1" k3="1"/>
<feColorMatrix type="matrix" values="0 0 0 0 1 0 0 0 0 1 0 0 0 0 1 0 0 0 0.25 0"/>
<feBlend mode="normal" in2="shape" result="effect1_innerShadow_3_73"/>
</filter>
<linearGradient id="paint0_linear_3_73" x1="610.09" y1="61.83" x2="354.096" y2="526.995" gradientUnits="userSpaceOnUse">
<stop stop-color="#A950C4"/>
<stop offset="1" stop-color="#82269E"/>
</linearGradient>
<linearGradient id="paint1_linear_3_73" x1="171" y1="165" x2="87" y2="221" gradientUnits="userSpaceOnUse">
<stop stop-color="#F4F4F4"/>
<stop offset="1" stop-color="#D6D6D6"/>
</linearGradient>
<clipPath id="clip0_3_73">
<rect width="722" height="458" fill="white"/>
</clipPath>
<clipPath id="clip1_3_73">
<rect width="722" height="458" fill="white"/>
</clipPath>
</defs>
</svg>
